<svg width="1920" height="1080" viewBox="0 0 1920 1080" fill="none" xmlns="http://www.w3.org/2000/svg" role="img" aria-labelledby="title desc">
  <title id="title">Hero Restaurant Les Carillons</title>
  <desc id="desc">Illustration elegante terroir avec collines, vignobles stylises et table gastronomique.</desc>

  <defs>
    <linearGradient id="sky" x1="960" y1="0" x2="960" y2="680" gradientUnits="userSpaceOnUse">
      <stop offset="0" stop-color="#201710"/>
      <stop offset="0.55" stop-color="#3A2819"/>
      <stop offset="1" stop-color="#5C3E28"/>
    </linearGradient>

    <linearGradient id="ground" x1="960" y1="620" x2="960" y2="1080" gradientUnits="userSpaceOnUse">
      <stop offset="0" stop-color="#4A3324"/>
      <stop offset="1" stop-color="#24180F"/>
    </linearGradient>

    <linearGradient id="goldLine" x1="0" y1="0" x2="1" y2="0">
      <stop offset="0" stop-color="#B28B57" stop-opacity="0"/>
      <stop offset="0.5" stop-color="#D5B17A"/>
      <stop offset="1" stop-color="#B28B57" stop-opacity="0"/>
    </linearGradient>

    <radialGradient id="sunGlow" cx="0" cy="0" r="1" gradientUnits="userSpaceOnUse" gradientTransform="translate(1430 250) rotate(90) scale(350 350)">
      <stop offset="0" stop-color="#D7B07D" stop-opacity="0.55"/>
      <stop offset="1" stop-color="#D7B07D" stop-opacity="0"/>
    </radialGradient>

    <linearGradient id="vignette" x1="960" y1="0" x2="960" y2="1080" gradientUnits="userSpaceOnUse">
      <stop offset="0" stop-color="#000000" stop-opacity="0.36"/>
      <stop offset="0.6" stop-color="#000000" stop-opacity="0.1"/>
      <stop offset="1" stop-color="#000000" stop-opacity="0.58"/>
    </linearGradient>

    <filter id="softNoise" x="-20%" y="-20%" width="140%" height="140%">
      <feTurbulence type="fractalNoise" baseFrequency="0.8" numOctaves="2" seed="7"/>
      <feColorMatrix type="saturate" values="0"/>
      <feComponentTransfer>
        <feFuncA type="table" tableValues="0 0.05"/>
      </feComponentTransfer>
    </filter>

    <filter id="softShadow" x="-20%" y="-20%" width="160%" height="180%">
      <feGaussianBlur stdDeviation="5"/>
    </filter>
  </defs>

  <rect width="1920" height="1080" fill="url(#sky)"/>
  <rect width="1920" height="1080" fill="url(#sunGlow)"/>

  <path d="M0 670C190 615 324 638 495 674C677 713 788 701 936 660C1116 610 1250 618 1424 666C1602 716 1748 719 1920 680V1080H0V670Z" fill="#3A291D"/>
  <path d="M0 715C216 646 355 670 530 708C705 747 843 752 1009 705C1170 658 1328 653 1503 699C1664 740 1767 741 1920 711V1080H0V715Z" fill="url(#ground)"/>

  <g opacity="0.45">
    <path d="M90 735C230 704 313 712 420 739" stroke="#6E5034" stroke-width="4"/>
    <path d="M240 785C386 751 470 760 597 792" stroke="#6E5034" stroke-width="4"/>
    <path d="M470 734C634 700 745 705 910 742" stroke="#6E5034" stroke-width="4"/>
    <path d="M740 786C900 753 1010 760 1180 796" stroke="#6E5034" stroke-width="4"/>
    <path d="M1000 736C1168 700 1285 710 1454 745" stroke="#6E5034" stroke-width="4"/>
    <path d="M1240 790C1422 757 1539 764 1722 798" stroke="#6E5034" stroke-width="4"/>
  </g>

  <g opacity="0.35">
    <path d="M120 825H1810" stroke="url(#goldLine)" stroke-width="1.5"/>
    <path d="M120 858H1810" stroke="url(#goldLine)" stroke-width="1.5"/>
    <path d="M120 891H1810" stroke="url(#goldLine)" stroke-width="1.5"/>
  </g>

  <g transform="translate(1120 560)">
    <ellipse cx="330" cy="340" rx="250" ry="56" fill="#000000" opacity="0.18" filter="url(#softShadow)"/>

    <rect x="180" y="228" width="10" height="180" rx="5" fill="#C9A26F"/>
    <rect x="470" y="228" width="10" height="180" rx="5" fill="#C9A26F"/>
    <rect x="325" y="182" width="10" height="180" rx="5" transform="rotate(90 325 182)" fill="#C9A26F"/>

    <ellipse cx="330" cy="276" rx="150" ry="43" fill="#F0E6D6"/>
    <ellipse cx="330" cy="271" rx="133" ry="33" fill="#E3D2BA"/>
    <ellipse cx="330" cy="268" rx="116" ry="24" fill="#7A2F22"/>

    <path d="M290 260C310 246 348 246 367 260C349 274 308 274 290 260Z" fill="#C48A5B" opacity="0.82"/>
    <circle cx="321" cy="257" r="6" fill="#F8D2A3" opacity="0.72"/>
    <circle cx="351" cy="262" r="5" fill="#F8D2A3" opacity="0.62"/>

    <path d="M246 215C250 199 264 191 279 194C269 205 260 213 246 215Z" fill="#8DA06D"/>
    <path d="M255 220C267 207 281 208 293 217C281 223 269 224 255 220Z" fill="#A4B985"/>

    <rect x="505" y="170" width="10" height="144" rx="5" fill="#D2B185"/>
    <ellipse cx="510" cy="154" rx="23" ry="32" fill="#D2B185"/>
    <ellipse cx="510" cy="154" rx="14" ry="21" fill="#2A1B12"/>
  </g>

  <g transform="translate(170 160)">
    <rect x="0" y="0" width="760" height="470" fill="#1C130D" fill-opacity="0.54" stroke="#C8A36D" stroke-opacity="0.4"/>
    <rect x="18" y="18" width="724" height="434" fill="none" stroke="#C8A36D" stroke-opacity="0.22"/>
  </g>

  <rect width="1920" height="1080" fill="url(#vignette)"/>
  <rect width="1920" height="1080" filter="url(#softNoise)" opacity="0.25"/>
</svg>
